<svg width="64" height="64" viewBox="0 0 64 64" fill="none" xmlns="http://www.w3.org/2000/svg">
  <g id="circles-gaugeBox">
    <circle cx="32" cy="32" r="30.4" style="fill: #000; stroke: none;"></circle>
    <circle cx="32" cy="32" r="27.84" style="fill: #fff; stroke: none;"></circle>
    <path d="M 21.72130085881487 6.126964925525261 A 27.84 27.84 0 0 0 5.006672867393252 25.186345304311615 L 12.763376066418182 27.14429205594621 A 19.84 19.84 0 0 1 24.674950037316346 13.56174511933984 Z" style="stroke: none; fill: red;"></path>
    <path d="M 42.27869914118514 6.126964925525268 A 27.84 27.84 0 0 0 21.72130085881487 6.126964925525261 L 24.674950037316346 13.56174511933984 A 19.84 19.84 0 0 1 39.325049962683664 13.561745119339847 Z" style="stroke: none; fill: orange;"></path>
    <path d="M 59.792899126272104 30.381247963132363 A 27.84 27.84 0 0 0 42.27869914118514 6.126964925525268 L 39.325049962683664 13.561745119339847 A 19.84 19.84 0 0 1 51.80643386010196 30.846406594416166 Z" style="stroke: none; fill: green;"></path>
    <circle cx="32" cy="32" r="3.2" style="fill: #999; stroke: none;"></circle>
  </g>
  <g id="tickMarks-gaugeBox">
    <g id="majorTickMarks-gaugeBox">
      <path d="M16.80167824851948,44.75290617618094L10.673322703567656,49.89520705367326" style="stroke: #000; stroke-width: 0.48px;"></path>
      <path d="M13.167025951511008,38.24056796204802L5.573084802926736,40.75692601126092" style="stroke: #000; stroke-width: 0.48px;"></path>
      <path d="M12.193566139898039,30.846406594416166L4.207100873727896,30.381247963132363" style="stroke: #000; stroke-width: 0.48px;"></path>
      <path d="M14.018853505192858,23.615253687064534L6.768391208899658,20.234307593138944" style="stroke: #000; stroke-width: 0.48px;"></path>
      <path d="M18.384965904684314,17.568906951190726L12.895032801734438,11.749917818606342" style="stroke: #000; stroke-width: 0.48px;"></path>
      <path d="M24.674950037316318,13.56174511933985L21.721300858814836,6.126964925525275" style="stroke: #000; stroke-width: 0.48px;"></path>
      <path d="M31.99999999999998,12.16L31.99999999999997,4.16" style="stroke: #000; stroke-width: 0.48px;"></path>
      <path d="M39.32504996268364,13.561745119339836L42.278699141185115,6.126964925525254" style="stroke: #000; stroke-width: 0.48px;"></path>
      <path d="M45.61503409531565,17.56890695119069L51.10496719826551,11.749917818606292" style="stroke: #000; stroke-width: 0.48px;"></path>
      <path d="M49.98114649480711,23.61525368706448L57.23160879110031,20.234307593138865" style="stroke: #000; stroke-width: 0.48px;"></path>
      <path d="M51.80643386010196,30.846406594416134L59.792899126272104,30.381247963132314" style="stroke: #000; stroke-width: 0.48px;"></path>
      <path d="M50.832974048489,38.24056796204799L58.42691519707327,40.756926011260894" style="stroke: #000; stroke-width: 0.48px;"></path>
      <path d="M47.19832175148055,44.75290617618091L53.32667729643238,49.89520705367321" style="stroke: #000; stroke-width: 0.48px;"></path><!---->
    </g>
  </g>
  <g id="needle-gaugeBox">
    <path d="M36.11384070199385,27.09731556403854L20.275553999317523,45.97265064249016" style="stroke: #000; stroke-width: 1.6" transform="rotate(205,32,32)"></path>
  </g>
</svg>
